<svg width="98" height="91" viewBox="0 0 98 91" fill="none" xmlns="http://www.w3.org/2000/svg">
<path d="M54.8768 81.7596C52.8647 84.2665 50.8652 86.7576 48.8014 89.1779C46.8515 86.5964 44.8367 84.086 42.8342 81.5911L42.828 81.5834C41.0273 79.3398 39.2366 77.1086 37.4969 74.8327H37.4998H37.5091H37.5183H37.5276H37.5369H37.5462H37.5555H37.5648H37.5741H37.5834H37.5927H37.602H37.6114H37.6207H37.63H37.6394H37.6487H37.6581H37.6675H37.6768H37.6862H37.6956H37.705H37.7144H37.7238H37.7332H37.7426H37.752H37.7614H37.7709H37.7803H37.7897H37.7992H37.8086H37.8181H37.8276H37.837H37.8465H37.856H37.8655H37.875H37.8845H37.894H37.9035H37.9131H37.9226H37.9321H37.9417H37.9512H37.9608H37.9703H37.9799H37.9895H37.9991H38.0087H38.0183H38.0279H38.0375H38.0471H38.0567H38.0663H38.076H38.0856H38.0953H38.1049H38.1146H38.1242H38.1339H38.1436H38.1533H38.163H38.1727H38.1824H38.1921H38.2018H38.2116H38.2213H38.2311H38.2408H38.2506H38.2603H38.2701H38.2799H38.2897H38.2995H38.3093H38.3191H38.3289H38.3387H38.3485H38.3584H38.3682H38.3781H38.3879H38.3978H38.4076H38.4175H38.4274H38.4373H38.4472H38.4571H38.467H38.4769H38.4869H38.4968H38.5068H38.5167H38.5267H38.5366H38.5466H38.5566H38.5666H38.5766H38.5866H38.5966H38.6066H38.6166H38.6267H38.6367H38.6467H38.6568H38.6669H38.6769H38.687H38.6971H38.7072H38.7173H38.7274H38.7375H38.7476H38.7578H38.7679H38.7781H38.7882H38.7984H38.8086H38.8187H38.8289H38.8391H38.8493H38.8595H38.8698H38.88H38.8902H38.9005H38.9107H38.921H38.9312H38.9415C39.4725 74.8327 40.0835 74.6984 40.5529 74.2267C41.0087 73.7687 41.1464 73.1781 41.1534 72.6584C41.4954 67.5263 42.1704 62.3879 42.8577 57.2076H42.8763H42.9029H42.9295H42.9561H42.9827H43.0092H43.0358H43.0624H43.0889H43.1154H43.142H43.1685H43.195H43.2215H43.248H43.2745H43.301H43.3275H43.3539H43.3804H43.4069H43.4333H43.4598H43.4862H43.5126H43.539H43.5655H43.5919H43.6183H43.6447H43.6711H43.6974H43.7238H43.7502H43.7766H43.8029H43.8293H43.8556H43.882H43.9083H43.9346H43.9609H43.9872H44.0135H44.0398H44.0661H44.0924H44.1187H44.145H44.1713H44.1975H44.2238H44.25H44.2763H44.3025H44.3288H44.355H44.3812H44.4074H44.4336H44.4598H44.4861H44.5122H44.5384H44.5646H44.5908H44.617H44.6431H44.6693H44.6955H44.7216H44.7478H44.7739H44.8H44.8262H44.8523H44.8784H44.9045H44.9306H44.9567H44.9828H45.0089H45.035H45.0611H45.0872H45.1133H45.1393H45.1654H45.1915H45.2175H45.2436H45.2696H45.2956H45.3217H45.3477H45.3737H45.3998H45.4258H45.4518H45.4778H45.5038H45.5298H45.5558H45.5818H45.6078H45.6338H45.6597H45.6857H45.7117H45.7377H45.7636H45.7896H45.8155H45.8415H45.8674H45.8934H45.9193H45.9452H45.9712H45.9971H46.023H46.0489H46.0749H46.1008H46.1267H46.1526H46.1785H46.2044H46.2303H46.2562H46.2821H46.3079H46.3338H46.3597H46.3856H46.4114H46.4373H46.4632H46.489H46.5149H46.5407H46.5666H46.5924H46.6183H46.6441H46.67H46.6958H46.7216H46.7475H46.7733H46.7991H46.8249H46.8508H46.8766H46.9024H46.9282H46.954H46.9798H47.0056H47.0314H47.0572H47.083H47.1088H47.1346H47.1604H47.1861H47.2119H47.2377H47.2635H47.2893H47.315H47.3408H47.3666H47.3923H47.4181H47.4439H47.4696H47.4954H47.5211H47.5469H47.5727H47.5984H47.6242H47.6499H47.6756H47.7014H47.7271H47.7529H47.7786H47.8043H47.8301H47.8558H47.8816H47.9073H47.933H47.9587H47.9845H48.0102H48.0359H48.0616H48.0874H48.1131H48.1388H48.1645H48.1902H48.2159H48.2417H48.2674H48.2931H48.3188H48.3445H48.3702H48.3959H48.4216H48.4473H48.473H48.4987H48.5245H48.5502H48.5759H48.6016H48.6273H48.653H48.6787H48.7044H48.7301H48.7558H48.7815H48.8072H48.8329H48.8585H48.8842H48.9099H48.9356H48.9613H48.987H49.0127H49.0384H49.0641H49.0898H49.1155H49.1412H49.1669H49.1926H49.2183H49.244H49.2697H49.2954H49.3211H49.3468H49.3725H49.3982H49.4239H49.4496H49.4753H49.501H49.5267H49.5524H49.5781H49.6038H49.6295H49.6552H49.6809H49.7066H49.7323H49.758H49.7837H49.8094H49.8351H49.8608H49.8865H49.9122H49.9379H49.9636H49.9894H50.0151H50.0408H50.0665H50.0922H50.1179H50.1437H50.1694H50.1951H50.2208H50.2466H50.2723H50.298H50.3237H50.3495H50.3752H50.4009H50.4267H50.4524H50.4781H50.5039H50.5296H50.5554H50.5811H50.6069H50.6326H50.6584H50.6841H50.7099H50.7356H50.7614H50.7871H50.8129H50.8387H50.8644H50.8902H50.916H50.9418H50.9675H50.9933H51.0191H51.0449H51.0707H51.0964H51.1222H51.148H51.1738H51.1996H51.2254H51.2512H51.277H51.3028H51.3286H51.3545H51.3803H51.4061H51.4319H51.4577H51.4836H51.5094H51.5352H51.5611H51.5869H51.6127H51.6386H51.6644H51.6903H51.7161H51.742H51.7678H51.7937H51.8196H51.8454H51.8713H51.8972H51.9231H51.949H51.9748H52.0007H52.0266H52.0525H52.0784H52.1043H52.1302H52.1562H52.1821H52.208H52.2339H52.2598H52.2858H52.3117H52.3376H52.3636H52.3895H52.4155H52.4414H52.4674H52.4934H52.5193H52.5453H52.5713H52.5972H52.6232H52.6492H52.6752H52.7012H52.7272H52.7532H52.7792H52.8052H52.8313H52.8573H52.8833H52.9093H52.9354H52.9614H52.9875H53.0135H53.0396H53.0656H53.0917H53.1178H53.1438H53.1699H53.196H53.2221H53.2482H53.2743H53.3004H53.3265H53.3526H53.3787H53.4049H53.431H53.4571H53.4833H53.5094H53.5356H53.5617H53.5879H53.614H53.6402H53.6664H53.6926H53.7188H53.745H53.7712H53.7974H53.8236H53.8498H53.876H53.9023H53.9285H53.9547H53.981H54.0072H54.0335H54.0598H54.086H54.1123H54.1386H54.1649H54.1912H54.2175H54.2438H54.2701H54.2964H54.3227H54.3491H54.3754H54.4017H54.4281H54.4545H54.4808H54.5072H54.5336H54.56H54.5863H54.6127H54.6391H54.6656H54.692H54.7184H54.7448H54.7713H54.7977H54.8242H54.8506H54.8771H54.9036H54.93H54.9565H54.983H55.0095H55.036H55.0625H55.0891H55.1156H55.1421H55.1687H55.1952H55.2218H55.2483H55.2749H55.3015H55.3281H55.3508L55.8519 64.761L56.3759 72.6583C56.383 73.178 56.5206 73.7687 56.9765 74.2267C57.4459 74.6984 58.0569 74.8327 58.5879 74.8327H58.5961H58.6043H58.6125H58.6208H58.629H58.6372H58.6454H58.6536H58.6619H58.6701H58.6783H58.6865H58.6948H58.703H58.7112H58.7194H58.7276H58.7359H58.7441H58.7523H58.7605H58.7688H58.777H58.7852H58.7934H58.8016H58.8099H58.8181H58.8263H58.8345H58.8428H58.851H58.8592H58.8674H58.8757H58.8839H58.8921H58.9003H58.9085H58.9168H58.925H58.9332H58.9414H58.9497H58.9579H58.9661H58.9743H58.9825H58.9908H58.999H59.0072H59.0154H59.0237H59.0319H59.0401H59.0483H59.0565H59.0648H59.073H59.0812H59.0894H59.0977H59.1059H59.1141H59.1223H59.1305H59.1388H59.147H59.1552H59.1634H59.1717H59.1799H59.1881H59.1963H59.2046H59.2128H59.221H59.2292H59.2374H59.2457H59.2539H59.2621H59.2703H59.2786H59.2868H59.295H59.3032H59.3114H59.3197H59.3279H59.3361H59.3443H59.3526H59.3608H59.369H59.3772H59.3854H59.3937H59.4019H59.4101H59.4183H59.4266H59.4348H59.443H59.4512H59.4594H59.4677H59.4759H59.4841H59.4923H59.5006H59.5088H59.517H59.5252H59.5335H59.5417H59.5499H59.5581H59.5663H59.5746H59.5828H59.591H59.5992H59.6075H59.6157H59.6239H59.6321H59.6403H59.6486H59.6568H59.665H59.6732H59.6815H59.6897H59.6979H59.7061H59.7143H59.7226H59.7308H59.739H59.7472H59.7555H59.7637H59.7719H59.7801H59.7883H59.7966H59.8048H59.813H59.8212H59.8295H59.8377H59.8459H59.8541H59.8624H59.8706H59.8788H59.887H59.8952H59.9035H59.9117H59.9199H59.9281H59.9364H59.9446H59.9528H59.961H59.9692H59.9775H59.9857H59.9939H60.0021H60.0104H60.0186H60.0268H60.035H60.0432H60.0515H60.0597H60.0679H60.0761H60.0844H60.0926H60.1008H60.109H60.1173H60.1255H60.1337H60.1419H60.1501H60.1584H60.1666H60.1748H60.183H60.1913H60.1995H60.2077H60.2159H60.2241H60.2324H60.2406H60.2488H60.257H60.2653H60.2735H60.2817H60.2899H60.2981H60.3064H60.3146H60.3228H60.331H60.3393H60.3475H60.3557H60.3639H60.3721H60.3804H60.3886H60.3968H60.405H60.4133H60.4215H60.4297H60.4379H60.4462H60.4544H60.4626H60.4708H60.479H60.4873H60.4955H60.5037H60.5119H60.5202H60.5284H60.5339C58.6088 77.1098 56.7406 79.4374 54.8833 81.7516L54.8768 81.7596Z" stroke="white" stroke-width="2.3195"/>
<path d="M33.5235 52.2338C35.0549 53.2892 36.5955 54.3509 38.0526 55.5268L29.9152 60.5234L20.4428 66.3397L19.1934 67.1069L20.2277 68.1461L21.3717 69.2956C14.9658 70.0895 8.73767 70.6794 2.3163 71.2478C2.39616 71.1541 2.48153 71.0612 2.57616 70.9661L2.65709 70.8848L2.72052 70.7892C4.12704 68.6694 5.44528 66.6384 6.75999 64.6129L6.76145 64.6106C7.9587 62.7661 9.15305 60.926 10.4127 59.0207C10.4313 59.0421 10.45 59.0637 10.4689 59.0857C10.4802 59.0988 10.4917 59.1122 10.5035 59.1258C10.6284 59.2709 10.7775 59.444 10.9307 59.5979C11.2764 59.9452 11.8208 60.3802 12.6298 60.3802C13.3389 60.3802 13.9364 60.0338 14.2991 59.806C14.4911 59.6854 14.636 59.5875 14.7597 59.5039C14.9438 59.3795 15.0806 59.2871 15.2554 59.1992L15.2691 59.1924L15.2826 59.1851L23.1762 54.9551L31.0698 50.7251L31.2116 50.6491C31.245 50.6632 31.2837 50.6805 31.328 50.7016C32.0508 51.2189 32.7861 51.7256 33.5235 52.2338Z" stroke="white" stroke-width="2.3195"/>
<path d="M91.8134 65.8325C92.8591 67.5136 93.9113 69.2052 95.0101 70.8999C91.776 70.5908 88.5909 70.2345 85.4251 69.8771C85.2163 69.8535 85.0075 69.8299 84.7989 69.8063C81.9783 69.4877 79.171 69.1706 76.3662 68.8892C76.7465 68.5189 77.1228 68.1053 77.4468 67.6169L78.1551 66.5494L77.0226 65.9505C71.84 63.2097 67.093 60.2595 62.2316 57.2383C61.3817 56.7101 60.5283 56.1797 59.6684 55.6479C60.4685 55.0966 61.2381 54.5561 61.989 54.0287C63.6363 52.8717 65.1938 51.7779 66.7861 50.7716C66.8378 50.7872 66.9044 50.8059 66.9823 50.8222C69.7364 52.3749 72.4884 53.8438 75.2269 55.3056L75.2327 55.3087C78.0412 56.8079 80.8356 58.2995 83.628 59.8778L83.6527 59.8917L83.678 59.9045C84.0136 60.073 84.6083 60.3565 85.2604 60.2255C85.9286 60.0912 86.3154 59.6164 86.5482 59.2059C86.7028 59.043 86.8379 58.8872 86.9516 58.7554L86.9698 58.7343C87.017 58.6795 87.0591 58.6308 87.0976 58.5866C87.2815 58.8795 87.5339 59.2583 87.851 59.5967C89.2217 61.6662 90.5105 63.7379 91.8092 65.8257L91.8134 65.8325ZM87.437 58.2467C87.437 58.2469 87.4349 58.2483 87.4309 58.2502C87.4351 58.2474 87.4371 58.2465 87.437 58.2467ZM86.7397 58.0314C86.7361 58.0275 86.736 58.027 86.7393 58.0309L86.7397 58.0314Z" stroke="white" stroke-width="2.3195"/>
<path d="M37.5836 27.6778C40.5947 25.2633 43.8734 23.9449 47.7192 23.4764C47.4243 25.1176 47.0888 26.8034 46.7506 28.5024L46.7486 28.5124C46.3114 30.7086 45.8699 32.9269 45.516 35.0603L45.5003 35.1546V35.2501C45.5003 35.2638 45.5003 35.2776 45.5003 35.2915C45.4999 36.0149 45.4993 37.1379 46.5397 38.1833L46.6713 38.3154L46.7371 38.3815L46.77 38.4146L46.7782 38.4228L46.7864 38.4311L46.7946 38.4394L46.7987 38.4435L46.8029 38.4476L46.8177 38.4626C46.8094 38.4542 46.8033 38.4481 46.8357 38.4807L46.8522 38.4972L46.8604 38.5055L46.8686 38.5137L46.8728 38.5179L46.8769 38.522L46.881 38.5261L46.8851 38.5303L46.9015 38.5468L46.9344 38.5798L47.066 38.712L47.1318 38.7781L47.1647 38.8112L47.1975 38.8442L47.2304 38.8772L47.2345 38.8814L47.2387 38.8855L47.2428 38.8896L47.2469 38.8938L47.2551 38.902L47.2592 38.9062L47.2633 38.9103L47.2798 38.9268L47.2962 38.9433L47.3127 38.9599L47.3291 38.9764L47.3373 38.9847L47.3455 38.9929C47.3905 39.038 47.3089 38.9561 47.3538 39.0012C47.4168 39.0645 47.2989 38.9461 47.362 39.0094L47.3661 39.0136L47.3702 39.0177L47.3784 39.026L47.3867 39.0342L47.3949 39.0425L47.4607 39.1086L47.5264 39.1747L47.5593 39.2077L47.5922 39.2408L47.6087 39.2573L47.6128 39.2614L47.6169 39.2656L47.6251 39.2738L47.658 39.3069L47.7238 39.373L47.7402 39.3895L47.7485 39.3977L47.7526 39.4019L47.7567 39.406L47.7731 39.4225L47.7896 39.4391L47.8553 39.5051L47.8882 39.5382L47.9047 39.5547L47.9088 39.5588L47.9129 39.563L47.917 39.5671L47.9211 39.5712L47.9293 39.5795L47.9335 39.5836L47.9376 39.5878L47.954 39.6043L47.9869 39.6373L48.1185 39.7695L48.25 39.9017L48.3816 40.0339L48.4474 40.1L48.5131 40.1661L48.5291 40.1821C48.6539 40.3919 48.8263 40.6126 49.0707 40.7814C49.4444 41.0396 49.8776 41.1015 50.2755 41.0015C50.609 40.9178 50.8548 40.7364 50.9895 40.6264C51.0973 40.5384 51.1986 40.4407 51.2751 40.3646C52.6301 39.3709 53.5715 38.1318 53.9997 36.6797C54.4335 35.2086 54.307 33.6332 53.7185 32.0455C52.7822 29.2151 52.4229 26.3723 52.093 23.4179C56.2116 23.8297 59.9344 25.1745 63.0501 27.9823C65.3168 30.2679 66.55 32.8002 66.55 35.9551V35.9737V35.9923V36.0109V36.0296V36.0482V36.0668V36.0855V36.1041V36.1228V36.1414V36.1601V36.1788V36.1975V36.2162V36.2349V36.2536V36.2723V36.291V36.3098V36.3285V36.3473V36.366V36.3848V36.4036V36.4223V36.4411V36.4599V36.4787V36.4975V36.5164V36.5352V36.554V36.5729V36.5917V36.6106V36.6294V36.6483V36.6672V36.6861V36.705V36.7239V36.7428V36.7617V36.7806V36.7996V36.8185V36.8375V36.8564V36.8754V36.8943V36.9133V36.9323V36.9513V36.9703V36.9893V37.0083V37.0273V37.0464V37.0654V37.0844V37.1035V37.1225V37.1416V37.1607V37.1797V37.1988V37.2179V37.237V37.2561V37.2752V37.2944V37.3135V37.3326V37.3517V37.3709V37.39V37.4092V37.4284V37.4476V37.4667V37.4859V37.5051V37.5243V37.5435V37.5627V37.582V37.6012V37.6204V37.6397V37.6589V37.6782V37.6974V37.7167V37.736V37.7552V37.7745V37.7938V37.8131V37.8324V37.8518V37.8711V37.8904V37.9097V37.9291V37.9484V37.9678V37.9871V38.0065V38.0259V38.0452V38.0646V38.084V38.1034V38.1228V38.1422V38.1616V38.1811V38.2005V38.2199V38.2394V38.2588V38.2783V38.2977V38.3172V38.3367V38.3561V38.3756V38.3951V38.4146V38.4341V38.4536V38.4731V38.4927V38.5122V38.5317V38.5513V38.5708V38.5903V38.6099V38.6295V38.649V38.6686V38.6882V38.7078V38.7274V38.747V38.7666V38.7862V38.8058V38.8254V38.845V38.8646V38.8843V38.9039V38.9236V38.9432V38.9629V38.9825V39.0022V39.0219V39.0416V39.0613V39.081V39.1007V39.1204V39.1401V39.1598V39.1795V39.1992V39.219V39.2387V39.2584V39.2782V39.2979V39.3177V39.3374V39.3572V39.377V39.3968V39.4165V39.4363V39.4561V39.4759V39.4957V39.5155V39.5354V39.5552V39.575V39.5948V39.6147V39.6345V39.6544V39.6742V39.6941V39.7139V39.7338V39.7537V39.7735V39.7934V39.8133V39.8332V39.8531V39.873V39.8929V39.9128V39.9327V39.9526V39.9725V39.9925V40.0124V40.0323V40.0523V40.0722V40.0922V40.1122V40.1321V40.1521V40.172V40.192V40.212V40.232V40.252V40.272V40.292V40.312V40.332V40.352V40.372V40.392V40.4121V40.4321V40.4521V40.4722V40.4922V40.5123V40.5323V40.5524V40.5724V40.5925V40.6126V40.6326V40.6527V40.6728V40.6929V40.713V40.7331V40.7532V40.7733V40.7934V40.8135V40.8336V40.8537V40.8738V40.894V40.9141V40.9342V40.9544V40.9745V40.9947V41.0148V41.035V41.0551V41.0753V41.0955V41.1156V41.1358V41.156V41.1762V41.1964V41.2166V41.2368V41.257V41.2772V41.2974V41.3176V41.3378V41.358V41.3782V41.3985V41.4187V41.4389V41.4591V41.4794V41.4996V41.5199V41.5401V41.5604V41.5806V41.6009V41.6212V41.6414V41.6617V41.682V41.7023V41.7225V41.7428V41.7631V41.7834V41.8037V41.824V41.8443V41.8646V41.8849V41.9052V41.9255V41.9459V41.9662V41.9865V42.0068V42.0272V42.0475V42.0678V42.0882V42.1085V42.1289V42.1492V42.1696V42.1899V42.2103V42.2307V42.251V42.2714V42.2918V42.3121V42.3325V42.3529V42.3733V42.3937V42.414V42.4344V42.4548V42.4752V42.4956V42.516V42.5364V42.5569V42.5773V42.5977V42.6181V42.6385V42.6589V42.6794V42.6998V42.7202V42.7407V42.7611V42.7815V42.802V42.8224V42.8429V42.8633V42.8838V42.9042V42.9247V42.9451V42.9656V42.9861V43.0065V43.027V43.0475V43.0679V43.0884V43.1089V43.1294V43.1499V43.1703V43.1908V43.2113V43.2318V43.2523V43.2728V43.2933V43.3138V43.3343V43.3548V43.3753V43.3958V43.4163V43.4369V43.4574V43.4779V43.4984V43.5189V43.5395V43.56V43.5805V43.601V43.6216V43.6421V43.6626V43.6832V43.7037V43.7243V43.7448V43.7654V43.7859V43.8065V43.827V43.8476V43.8681V43.8887V43.9092V43.9298V43.9503V43.9709V43.9915V44.012V44.0326V44.0532V44.0738V44.0943V44.1149V44.1355V44.1561V44.1766V44.1972V44.2178V44.2384V44.259V44.2796V44.3001V44.3207V44.3413V44.3619V44.3825V44.4031V44.4237V44.4443V44.4649V44.4855V44.5061V44.5267V44.5473V44.5679V44.5885V44.6091V44.6297V44.6504V44.671V44.6916V44.7122V44.7328V44.7534V44.774V44.7947V44.8153V44.8359V44.8565V44.8771V44.8978V44.9184V44.939V44.9596V44.9803V45.0009V45.0215V45.0422V45.0628V45.0834V45.1041V45.1247V45.1453V45.166V45.1866V45.2072V45.2279V45.2485V45.2691V45.2898V45.3104V45.3311V45.3517V45.3724V45.393V45.4136V45.4343V45.4549V45.4756V45.4962V45.5169V45.5375V45.5582V45.5788V45.5995V45.6201V45.6408V45.6614V45.6821V45.7027V45.7234V45.744V45.7647V45.7853V45.806V45.8266V45.8473V45.8679V45.8886V45.9092V45.9299V45.9505V45.9712V45.9918V46.0125V46.0331V46.0538V46.0744V46.0755H66.5298H66.4661H66.4023H66.3386H66.2748H66.211H66.1472H66.0834H66.0196H65.9558H65.892H65.8282H65.7644H65.7005H65.6367H65.5728H65.509H65.4451H65.3812H65.3173H65.2535H65.1896H65.1257H65.0617H64.9978H64.9339H64.87H64.806H64.7421H64.6781H64.6142H64.5502H64.4862H64.4222H64.3582H64.2942H64.2302H64.1662H64.1022H64.0382H63.9742H63.9101H63.8461H63.782H63.718H63.6539H63.5898H63.5258H63.4617H63.3976H63.3335H63.2694H63.2053H63.1412H63.077H63.0129H62.9488H62.8846H62.8205H62.7563H62.6922H62.628H62.5638H62.4997H62.4355H62.3713H62.3071H62.2429H62.1787H62.1145H62.0503H61.986H61.9218H61.8576H61.7933H61.7291H61.6648H61.6006H61.5363H61.472H61.4078H61.3435H61.2792H61.2149H61.1506H61.0863H61.022H60.9577H60.8934H60.829H60.7647H60.7004H60.636H60.5717H60.5074H60.443H60.3786H60.3143H60.2499H60.1855H60.1212H60.0568H59.9924H59.928H59.8636H59.7992H59.7348H59.6704H59.606H59.5415H59.4771H59.4127H59.3483H59.2838H59.2194H59.1549H59.0905H59.026H58.9616H58.8971H58.8326H58.7681H58.7037H58.6392H58.5747H58.5102H58.4457H58.3812H58.3167H58.2522H58.1877H58.1232H58.0587H57.9942H57.9296H57.8651H57.8006H57.736H57.6715H57.607H57.5424H57.4779H57.4133H57.3487H57.2842H57.2196H57.1551H57.0905H57.0259H56.9613H56.8967H56.8322H56.7676H56.703H56.6384H56.5738H56.5092H56.4446H56.38H56.3154H56.2508H56.1861H56.1215H56.0569H55.9923H55.9277H55.863H55.7984H55.7338H55.6691H55.6045H55.5398H55.4752H55.4105H55.3459H55.2812H55.2166H55.1519H55.0873H55.0226H54.9579H54.8933H54.8286H54.7639H54.6993H54.6346H54.5699H54.5052H54.4405H54.3758H54.3112H54.2465H54.1818H54.1171H54.0524H53.9877H53.923H53.8583H53.7936H53.7289H53.6642H53.5995H53.5348H53.4701H53.4053H53.3406H53.2759H53.2112H53.1465H53.0818H53.017H52.9523H52.8876H52.8229H52.7581H52.6934H52.6287H52.564H52.4992H52.4345H52.3698H52.305H52.2403H52.1755H52.1108H52.0461H51.9813H51.9166H51.8518H51.7871H51.7224H51.6576H51.5929H51.5281H51.4634H51.3986H51.3339H51.2691H51.2044H51.1396H51.0749H51.0101H50.9454H50.8806H50.8159H50.7511H50.6864H50.6216H50.5569H50.4921H50.4274H50.3626H50.2979H50.2331H50.1684H50.1036H50.0389H49.9741H49.9094H49.8446H49.7799H49.7151H49.6504H49.5856H49.5209H49.4561H49.3914H49.3266H49.2619H49.1971H49.1324H49.0676H49.0029H48.9381H48.8734H48.8086H48.7439H48.6791H48.6144H48.5497H48.4849H48.4202H48.3554H48.2907H48.2259H48.1612H48.0965H48.0317H47.967H47.9023H47.8375H47.7728H47.7081H47.6433H47.5786H47.5139H47.4492H47.3844H47.3197H47.255H47.1903H47.1256H47.0608H46.9961H46.9314H46.8667H46.802H46.7373H46.6726H46.6079H46.5432H46.4785H46.4138H46.3491H46.2844H46.2197H46.155H46.0903H46.0256H45.9609H45.8962H45.8315H45.7669H45.7022H45.6375H45.5728H45.5082H45.4435H45.3788H45.3142H45.2495H45.1848H45.1202H45.0555H44.9909H44.9262H44.8616H44.7969H44.7323H44.6676H44.603H44.5384H44.4737H44.4091H44.3445H44.2799H44.2152H44.1506H44.086H44.0214H43.9568H43.8922H43.8276H43.763H43.6984H43.6338H43.5692H43.5046H43.44H43.3754H43.3109H43.2463H43.1817H43.1171H43.0526H42.988H42.9235H42.8589H42.7944H42.7298H42.6653H42.6007H42.5362H42.4717H42.4071H42.3426H42.2781H42.2136H42.149H42.0845H42.02H41.9555H41.891H41.8265H41.7621H41.6976H41.6331H41.5686H41.5041H41.4397H41.3752H41.3107H41.2463H41.1818H41.1174H41.0529H40.9885H40.9241H40.8596H40.7952H40.7308H40.6664H40.602H40.5376H40.4732H40.4088H40.3444H40.28H40.2156H40.1512H40.0869H40.0225H39.9581H39.8938H39.8294H39.7651H39.7007H39.6364H39.572H39.5077H39.4434H39.3791H39.3148H39.2505H39.1862H39.1219H39.0576H38.9933H38.929H38.8647H38.8005H38.7362H38.6719H38.6077H38.5434H38.4792H38.415H38.3507H38.2865H38.2223H38.1581H38.0939H38.0297H37.9655H37.9013H37.8371H37.7729H37.7087H37.6446H37.5804H37.5163H37.4521H37.388H37.3238H37.2597H37.1956H37.1315H37.0674H37.0033H36.9392H36.8751H36.811H36.7469H36.6829H36.6188H36.5547H36.4907H36.4266H36.3626H36.2986H36.2345H36.1705H36.1065H36.0425H35.9785H35.9145H35.8505H35.7866H35.7226H35.6586H35.5947H35.5307H35.4668H35.4029H35.3389H35.275H35.2111H35.1472H35.0833H35.0194H34.9555H34.8917H34.8278H34.7639H34.7001H34.6362H34.5724H34.5086H34.4447H34.3809H34.3171H34.2533H34.1895H34.1257H34.062H33.9982H33.9344H33.8707H33.8069H33.7867V46.066V46.0474V46.0288V46.0101V45.9914V45.9728V45.9541V45.9354V45.9167V45.898V45.8793V45.8606V45.8418V45.8231V45.8044V45.7856V45.7669V45.7481V45.7293V45.7106V45.6918V45.673V45.6542V45.6354V45.6166V45.5977V45.5789V45.5601V45.5412V45.5224V45.5035V45.4847V45.4658V45.4469V45.428V45.4092V45.3903V45.3714V45.3524V45.3335V45.3146V45.2957V45.2767V45.2578V45.2388V45.2199V45.2009V45.182V45.163V45.144V45.125V45.106V45.087V45.068V45.049V45.03V45.0109V44.9919V44.9729V44.9538V44.9348V44.9157V44.8967V44.8776V44.8585V44.8394V44.8204V44.8013V44.7822V44.7631V44.744V44.7248V44.7057V44.6866V44.6675V44.6483V44.6292V44.61V44.5909V44.5717V44.5526V44.5334V44.5142V44.495V44.4759V44.4567V44.4375V44.4183V44.3991V44.3799V44.3606V44.3414V44.3222V44.303V44.2837V44.2645V44.2452V44.226V44.2067V44.1875V44.1682V44.1489V44.1297V44.1104V44.0911V44.0718V44.0525V44.0332V44.0139V43.9946V43.9753V43.956V43.9367V43.9174V43.898V43.8787V43.8594V43.84V43.8207V43.8013V43.782V43.7626V43.7432V43.7239V43.7045V43.6851V43.6658V43.6464V43.627V43.6076V43.5882V43.5688V43.5494V43.53V43.5106V43.4912V43.4718V43.4524V43.4329V43.4135V43.3941V43.3746V43.3552V43.3358V43.3163V43.2969V43.2774V43.258V43.2385V43.2191V43.1996V43.1801V43.1607V43.1412V43.1217V43.1022V43.0828V43.0633V43.0438V43.0243V43.0048V42.9853V42.9658V42.9463V42.9268V42.9073V42.8878V42.8683V42.8488V42.8293V42.8097V42.7902V42.7707V42.7512V42.7316V42.7121V42.6926V42.673V42.6535V42.6339V42.6144V42.5949V42.5753V42.5558V42.5362V42.5167V42.4971V42.4775V42.458V42.4384V42.4188V42.3993V42.3797V42.3601V42.3406V42.321V42.3014V42.2819V42.2623V42.2427V42.2231V42.2035V42.1839V42.1644V42.1448V42.1252V42.1056V42.086V42.0664V42.0468V42.0272V42.0076V41.988V41.9684V41.9488V41.9292V41.9096V41.89V41.8704V41.8508V41.8312V41.8116V41.792V41.7724V41.7528V41.7331V41.7135V41.6939V41.6743V41.6547V41.6351V41.6155V41.5958V41.5762V41.5566V41.537V41.5174V41.4978V41.4781V41.4585V41.4389V41.4193V41.3997V41.38V41.3604V41.3408V41.3212V41.3015V41.2819V41.2623V41.2427V41.2231V41.2034V41.1838V41.1642V41.1446V41.125V41.1053V41.0857V41.0661V41.0465V41.0268V41.0072V40.9876V40.968V40.9484V40.9288V40.9091V40.8895V40.8699V40.8503V40.8307V40.8111V40.7914V40.7718V40.7522V40.7326V40.713V40.6934V40.6738V40.6542V40.6346V40.615V40.5954V40.5757V40.5561V40.5365V40.5169V40.4973V40.4777V40.4581V40.4386V40.419V40.3994V40.3798V40.3602V40.3406V40.321V40.3014V40.2818V40.2623V40.2427V40.2231V40.2035V40.1839V40.1644V40.1448V40.1252V40.1056V40.0861V40.0665V40.0469V40.0274V40.0078V39.9883V39.9687V39.9492V39.9296V39.9101V39.8905V39.871V39.8514V39.8319V39.8123V39.7928V39.7733V39.7537V39.7342V39.7147V39.6952V39.6756V39.6561V39.6366V39.6171V39.5976V39.5781V39.5586V39.539V39.5195V39.5V39.4806V39.4611V39.4416V39.4221V39.4026V39.3831V39.3636V39.3442V39.3247V39.3052V39.2858V39.2663V39.2468V39.2274V39.2079V39.1885V39.169V39.1496V39.1301V39.1107V39.0913V39.0719V39.0524V39.033V39.0136V38.9942V38.9748V38.9553V38.9359V38.9165V38.8971V38.8778V38.8584V38.839V38.8196V38.8002V38.7808V38.7615V38.7421V38.7228V38.7034V38.684V38.6647V38.6453V38.626V38.6067V38.5873V38.568V38.5487V38.5294V38.51V38.4907V38.4714V38.4521V38.4328V38.4135V38.3943V38.375V38.3557V38.3364V38.3171V38.2979V38.2786V38.2594V38.2401V38.2209V38.2016V38.1824V38.1632V38.1439V38.1247V38.1055V38.0863V38.0671V38.0479V38.0287V38.0095V37.9903V37.9711V37.952V37.9328V37.9136V37.8945V37.8753V37.8562V37.837V37.8179V37.7988V37.7796V37.7605V37.7414V37.7223V37.7032V37.6841V37.665V37.6459V37.6268V37.6078V37.5887V37.5696V37.5506V37.5315V37.5125V37.4934V37.4744V37.4554V37.4364V37.4174V37.3983V37.3793V37.3604V37.3414V37.3224V37.3034V37.2844V37.2655V37.2465V37.2276V37.2086V37.1897V37.1708V37.1518V37.1329V37.114V37.0951V37.0762V37.0573V37.0384V37.0196V37.0007V36.9818V36.963V36.9441V36.9253V36.9064V36.8876V36.8688V36.85V36.8312V36.8124V36.7936V36.7748V36.756V36.7373V36.7185V36.6997V36.681V36.6623V36.6435V36.6248V36.6061V36.5874V36.5687V36.55V36.5313V36.5126V36.4939V36.4753V36.4566V36.438V36.4193V36.4007V36.3821V36.3634V36.3448V36.3262V36.3076C33.7867 32.7582 35.0507 29.9134 37.5836 27.6778Z" stroke="white" stroke-width="2.3195"/>
<path d="M58.8316 10.2226C58.8316 15.2273 54.7849 19.2854 49.8174 19.2854C44.8498 19.2854 40.8031 15.2273 40.8031 10.2226C40.8031 5.21784 44.8498 1.15975 49.8174 1.15975C54.7849 1.15975 58.8316 5.21783 58.8316 10.2226Z" stroke="white" stroke-width="2.3195"/>
</svg>
