<svg width="100" height="92" viewBox="0 0 100 92" fill="none" xmlns="http://www.w3.org/2000/svg">
<path d="M99.5362 44.5798C97.8887 46.9034 96.2412 49.227 94.5937 51.5506C92.6167 54.5381 90.6396 57.1936 88.3331 60.1811C88.0036 60.513 88.0036 60.845 87.3446 60.1811C83.7201 55.2019 80.425 50.2228 76.8005 45.2436C76.8005 45.2436 76.8005 44.9117 76.471 44.9117C78.1185 44.9117 79.766 44.9117 81.084 44.9117C82.0725 44.9117 83.3906 44.9117 84.3791 44.9117C85.0381 44.9117 85.3676 44.5797 85.0381 43.9159C84.7086 36.6131 82.402 29.9742 78.448 23.9992C71.5284 13.3771 61.6433 7.40207 49.1221 6.40624C29.0224 4.41458 10.8997 18.0243 6.94567 37.6089C5.29815 46.2395 5.95714 54.5381 9.58169 62.5047C9.91119 63.1686 9.9112 63.5005 8.92269 63.8325C7.60467 64.1644 6.61616 64.8283 5.62765 65.8241C4.96864 66.1561 4.63913 66.1561 4.30963 65.4922C2.33261 61.1769 1.0146 56.5297 0.355594 51.8825C-0.962421 40.2645 1.34409 29.6423 7.93417 20.0159C15.5128 9.06179 26.0569 2.75486 39.237 0.763198C62.3023 -2.22429 83.7201 12.7132 88.9921 35.6173C89.6511 38.2728 89.9806 40.9284 89.9806 43.5839C89.9806 44.2478 90.3101 44.5798 90.9691 44.5798C94.9232 44.5798 97.2297 44.5798 99.5362 44.5798Z" fill="#212121"/>
<path d="M19.796 63.5005C18.8075 68.4796 18.1485 73.1269 17.16 78.106C16.8305 79.1018 17.16 80.0977 17.819 80.7616C18.8075 81.4254 19.4665 82.4213 20.455 83.0852C20.7845 83.4171 21.114 83.4171 21.4435 83.0852C22.432 82.0893 23.4205 81.0935 24.0795 80.0977C24.4091 79.7657 24.409 79.4338 24.409 79.1018C23.4205 74.1227 22.432 69.4755 21.773 64.4963C21.773 63.8324 21.773 63.5005 22.432 63.5005C28.0336 64.1644 33.3057 65.8241 37.2597 70.4713C39.2367 72.7949 40.2252 75.4505 40.2252 78.7699C40.2252 82.7532 40.2252 86.7365 40.2252 90.3879C40.2252 91.0518 39.8957 91.3837 39.2367 91.3837C26.7156 91.3837 14.5239 91.3837 2.0028 91.3837C1.3438 91.3837 1.01428 91.0518 1.01428 90.3879C1.01428 86.7365 1.01428 83.0852 1.01428 79.1018C1.01428 74.7866 2.6618 71.1352 5.95684 68.4796C9.91089 65.1602 14.1944 63.8324 19.137 63.5005C19.4665 63.5005 19.796 63.5005 19.796 63.5005Z" fill="#212121"/>
<path d="M20.7848 61.5091C14.5243 61.5091 9.2522 56.5299 9.2522 50.223C9.2522 43.9161 14.1948 38.605 20.7848 38.605C27.0454 38.605 31.988 43.5841 32.3175 50.223C32.3175 56.5299 27.0454 61.5091 20.7848 61.5091Z" fill="#212121"/>
<path d="M46.486 91.0515C45.4975 91.0515 44.1795 91.0515 43.191 91.0515C42.532 91.0515 42.532 90.7195 42.532 90.3876C42.532 89.0598 42.532 87.4001 42.532 86.0723C42.532 85.4084 42.532 85.4084 43.191 85.4084C53.7351 86.4043 63.2907 83.4168 71.5283 76.7779C73.5054 75.1182 75.1529 73.4585 76.8004 71.4668C77.1299 71.1348 77.4594 70.8029 77.7889 71.4668C78.4479 72.7946 79.4364 73.7904 80.4249 75.1182C80.7544 75.4501 80.7544 75.7821 80.4249 76.114C73.5053 83.4168 65.2678 88.3959 55.7121 90.3876C52.0876 91.0515 49.4516 91.3834 46.486 91.0515Z" fill="#212121"/>
<path d="M47.1449 46.9035C46.4859 46.5716 45.8268 47.2355 45.8268 46.2396C45.4973 46.2396 45.1678 46.5716 45.1678 45.9077C45.1678 45.2438 45.1678 44.5799 45.1678 43.5841C45.1678 43.5841 45.1678 43.2522 45.4973 43.2522C46.4859 43.5841 46.1564 42.5883 46.1564 42.2563C46.4859 34.6216 46.4859 26.9869 46.8154 19.6842C46.8154 19.3522 46.8154 19.0203 47.1449 18.6883C47.4744 18.3564 47.8039 18.6883 48.1334 19.3522C48.4629 25.3272 48.4629 31.3022 48.7924 37.2772C48.7924 38.9369 48.7924 40.9285 48.7924 42.5883C48.7924 43.2522 49.1219 43.5841 49.7809 43.5841C54.0645 43.5841 58.0185 43.916 62.302 44.248C62.6315 44.248 62.9611 43.916 63.2906 44.5799C63.2906 45.2438 62.961 45.2438 62.302 45.2438C58.0185 45.5758 54.0645 45.5758 49.7809 45.9077C49.1219 45.9077 48.7924 45.9077 48.7924 46.5716C48.1334 47.2355 47.4744 46.5716 47.1449 46.9035Z" fill="#212121"/>
<path d="M46.4862 75.7822C47.8042 75.7822 48.7927 77.11 48.7927 78.4378C48.7927 79.7655 47.4747 80.7614 46.4862 80.7614C45.1682 80.7614 44.1797 79.7655 44.1797 78.4378C44.1797 76.7781 45.1682 75.7822 46.4862 75.7822Z" fill="#212121"/>
<path d="M46.4862 15.7009C45.1682 15.7009 44.1797 14.7051 44.1797 13.3773C44.1797 12.0495 45.1682 11.0537 46.4862 11.0537C47.8042 11.0537 48.7927 12.0495 48.7927 13.3773C48.7927 14.7051 47.8042 15.7009 46.4862 15.7009Z" fill="#212121"/>
<path d="M18.4785 31.3023C17.4899 31.3023 16.8309 30.6385 16.8309 29.6426C16.8309 28.9787 17.4899 27.9829 18.4785 27.9829C19.467 27.9829 20.126 28.6468 20.126 29.6426C20.126 30.3065 19.467 30.9704 18.4785 31.3023Z" fill="#212121"/>
<path d="M74.1641 63.5006C73.1756 63.5006 72.5166 62.8367 72.5166 61.8409C72.5166 61.177 73.1756 60.1812 73.8346 60.1812C74.8231 60.1812 75.4821 60.845 75.4821 61.8409C75.8116 62.8367 75.1526 63.5006 74.1641 63.5006Z" fill="#212121"/>
<path d="M63.9493 73.7906C63.9493 74.7864 63.2903 75.4503 62.3018 75.4503C61.3133 75.4503 60.6543 74.7864 60.6543 73.7906C60.6543 72.7947 61.3133 72.1309 61.9723 72.1309C63.2903 72.1309 63.9493 72.7947 63.9493 73.7906Z" fill="#212121"/>
<path d="M74.1641 27.9829C75.1526 27.9829 75.8116 28.6468 75.8116 29.6426C75.8116 30.3065 75.1526 30.9704 74.1641 30.9704C73.1756 30.9704 72.5166 30.3065 72.5166 29.3107C72.8461 28.6468 73.5051 27.9829 74.1641 27.9829Z" fill="#212121"/>
<path d="M63.9495 17.6924C63.9495 18.6883 63.2905 19.3522 62.302 19.3522C61.3135 19.3522 60.6545 18.6883 60.984 17.6924C60.984 17.0285 61.643 16.3647 62.6315 16.0327C63.2906 16.0327 63.9495 17.0285 63.9495 17.6924Z" fill="#212121"/>
<path d="M31.9878 17.6924C31.9878 18.6883 31.3288 19.3522 30.3403 19.3522C29.6813 19.3522 28.6927 18.6883 28.6927 17.6924C28.6927 16.6966 29.3518 16.0327 30.3403 16.0327C31.3288 16.0327 31.9878 16.6966 31.9878 17.6924Z" fill="#212121"/>
</svg>
