<svg width="102" height="94" viewBox="0 0 102 94" fill="none" xmlns="http://www.w3.org/2000/svg">
<path d="M100.536 45.5798C98.8887 47.9034 97.2412 50.227 95.5937 52.5506C93.6167 55.5381 91.6396 58.1936 89.3331 61.1811C89.0036 61.513 89.0036 61.845 88.3446 61.1811C84.7201 56.2019 81.425 51.2228 77.8005 46.2436C77.8005 46.2436 77.8005 45.9117 77.471 45.9117C79.1185 45.9117 80.766 45.9117 82.084 45.9117C83.0725 45.9117 84.3906 45.9117 85.3791 45.9117C86.0381 45.9117 86.3676 45.5797 86.0381 44.9159C85.7086 37.6131 83.402 30.9742 79.448 24.9992C72.5284 14.3771 62.6433 8.40207 50.1221 7.40624C30.0224 5.41458 11.8997 19.0243 7.94567 38.6089C6.29815 47.2395 6.95714 55.5381 10.5817 63.5047C10.9112 64.1686 10.9112 64.5005 9.92269 64.8325C8.60467 65.1644 7.61616 65.8283 6.62765 66.8241C5.96864 67.1561 5.63913 67.1561 5.30963 66.4922C3.33261 62.1769 2.0146 57.5297 1.35559 52.8825C0.0375788 41.2645 2.34409 30.6423 8.93417 21.0159C16.5128 10.0618 27.0569 3.75486 40.237 1.7632C63.3023 -1.22429 84.7201 13.7132 89.9921 36.6173C90.6511 39.2728 90.9806 41.9284 90.9806 44.5839C90.9806 45.2478 91.3101 45.5798 91.9691 45.5798C95.9232 45.5798 98.2297 45.5798 100.536 45.5798Z" stroke="white" stroke-width="1.5"/>
<path d="M20.796 64.5005C19.8075 69.4796 19.1485 74.1269 18.16 79.106C17.8305 80.1018 18.16 81.0977 18.819 81.7616C19.8075 82.4254 20.4665 83.4213 21.455 84.0852C21.7845 84.4171 22.114 84.4171 22.4435 84.0852C23.432 83.0893 24.4205 82.0935 25.0795 81.0977C25.4091 80.7657 25.409 80.4338 25.409 80.1018C24.4205 75.1227 23.432 70.4755 22.773 65.4963C22.773 64.8324 22.773 64.5005 23.432 64.5005C29.0336 65.1644 34.3057 66.8241 38.2597 71.4713C40.2367 73.7949 41.2252 76.4505 41.2252 79.7699C41.2252 83.7532 41.2252 87.7365 41.2252 91.3879C41.2252 92.0518 40.8957 92.3837 40.2367 92.3837C27.7156 92.3837 15.5239 92.3837 3.0028 92.3837C2.3438 92.3837 2.01428 92.0518 2.01428 91.3879C2.01428 87.7365 2.01428 84.0852 2.01428 80.1018C2.01428 75.7866 3.6618 72.1352 6.95684 69.4796C10.9109 66.1602 15.1944 64.8324 20.137 64.5005C20.4665 64.5005 20.796 64.5005 20.796 64.5005Z" stroke="white" stroke-width="1.5"/>
<path d="M21.7848 62.5091C15.5243 62.5091 10.2522 57.5299 10.2522 51.223C10.2522 44.9161 15.1948 39.605 21.7848 39.605C28.0454 39.605 32.988 44.5841 33.3175 51.223C33.3175 57.5299 28.0454 62.5091 21.7848 62.5091Z" stroke="white" stroke-width="1.5"/>
<path d="M47.486 92.0515C46.4975 92.0515 45.1795 92.0515 44.191 92.0515C43.532 92.0515 43.532 91.7195 43.532 91.3876C43.532 90.0598 43.532 88.4001 43.532 87.0723C43.532 86.4084 43.532 86.4084 44.191 86.4084C54.7351 87.4043 64.2907 84.4168 72.5283 77.7779C74.5054 76.1182 76.1529 74.4585 77.8004 72.4668C78.1299 72.1348 78.4594 71.8029 78.7889 72.4668C79.4479 73.7946 80.4364 74.7904 81.4249 76.1182C81.7544 76.4501 81.7544 76.7821 81.4249 77.114C74.5053 84.4168 66.2678 89.3959 56.7121 91.3876C53.0876 92.0515 50.4516 92.3834 47.486 92.0515Z" stroke="white" stroke-width="1.5"/>
<path d="M48.1449 47.9035C47.4859 47.5716 46.8268 48.2355 46.8268 47.2396C46.4973 47.2396 46.1678 47.5716 46.1678 46.9077C46.1678 46.2438 46.1678 45.5799 46.1678 44.5841C46.1678 44.5841 46.1678 44.2522 46.4973 44.2522C47.4859 44.5841 47.1564 43.5883 47.1564 43.2563C47.4859 35.6216 47.4859 27.9869 47.8154 20.6842C47.8154 20.3522 47.8154 20.0203 48.1449 19.6883C48.4744 19.3564 48.8039 19.6883 49.1334 20.3522C49.4629 26.3272 49.4629 32.3022 49.7924 38.2772C49.7924 39.9369 49.7924 41.9285 49.7924 43.5883C49.7924 44.2522 50.1219 44.5841 50.7809 44.5841C55.0645 44.5841 59.0185 44.916 63.302 45.248C63.6315 45.248 63.9611 44.916 64.2906 45.5799C64.2906 46.2438 63.961 46.2438 63.302 46.2438C59.0185 46.5758 55.0645 46.5758 50.7809 46.9077C50.1219 46.9077 49.7924 46.9077 49.7924 47.5716C49.1334 48.2355 48.4744 47.5716 48.1449 47.9035Z" stroke="white" stroke-width="1.5"/>
<path d="M47.4862 76.7822C48.8042 76.7822 49.7927 78.11 49.7927 79.4378C49.7927 80.7655 48.4747 81.7614 47.4862 81.7614C46.1682 81.7614 45.1797 80.7655 45.1797 79.4378C45.1797 77.7781 46.1682 76.7822 47.4862 76.7822Z" stroke="white" stroke-width="1.5"/>
<path d="M47.4862 16.7009C46.1682 16.7009 45.1797 15.7051 45.1797 14.3773C45.1797 13.0495 46.1682 12.0537 47.4862 12.0537C48.8042 12.0537 49.7927 13.0495 49.7927 14.3773C49.7927 15.7051 48.8042 16.7009 47.4862 16.7009Z" stroke="white" stroke-width="1.5"/>
<path d="M19.4785 32.3023C18.4899 32.3023 17.8309 31.6385 17.8309 30.6426C17.8309 29.9787 18.4899 28.9829 19.4785 28.9829C20.467 28.9829 21.126 29.6468 21.126 30.6426C21.126 31.3065 20.467 31.9704 19.4785 32.3023Z" stroke="white" stroke-width="1.5"/>
<path d="M75.1641 64.5006C74.1756 64.5006 73.5166 63.8367 73.5166 62.8409C73.5166 62.177 74.1756 61.1812 74.8346 61.1812C75.8231 61.1812 76.4821 61.845 76.4821 62.8409C76.8116 63.8367 76.1526 64.5006 75.1641 64.5006Z" stroke="white" stroke-width="1.5"/>
<path d="M64.9493 74.7906C64.9493 75.7864 64.2903 76.4503 63.3018 76.4503C62.3133 76.4503 61.6543 75.7864 61.6543 74.7906C61.6543 73.7947 62.3133 73.1309 62.9723 73.1309C64.2903 73.1309 64.9493 73.7947 64.9493 74.7906Z" stroke="white" stroke-width="1.5"/>
<path d="M75.1641 28.9829C76.1526 28.9829 76.8116 29.6468 76.8116 30.6426C76.8116 31.3065 76.1526 31.9704 75.1641 31.9704C74.1756 31.9704 73.5166 31.3065 73.5166 30.3107C73.8461 29.6468 74.5051 28.9829 75.1641 28.9829Z" stroke="white" stroke-width="1.5"/>
<path d="M64.9495 18.6924C64.9495 19.6883 64.2905 20.3522 63.302 20.3522C62.3135 20.3522 61.6545 19.6883 61.984 18.6924C61.984 18.0285 62.643 17.3647 63.6315 17.0327C64.2906 17.0327 64.9495 18.0285 64.9495 18.6924Z" stroke="white" stroke-width="1.5"/>
<path d="M32.9878 18.6924C32.9878 19.6883 32.3288 20.3522 31.3403 20.3522C30.6813 20.3522 29.6927 19.6883 29.6927 18.6924C29.6927 17.6966 30.3518 17.0327 31.3403 17.0327C32.3288 17.0327 32.9878 17.6966 32.9878 18.6924Z" stroke="white" stroke-width="1.5"/>
</svg>
