<svg width="146" height="91" viewBox="0 0 146 91" fill="none" xmlns="http://www.w3.org/2000/svg">
<path d="M17.0906 23.5428C13.8742 25.1448 11.7281 27.285 10.1157 30.4985C9.57918 31.0336 9.57732 32.1058 9.57639 32.6419C9.57454 33.7142 10.1092 34.2513 10.6448 34.2524L11.1804 34.2534C14.9269 35.8691 18.6733 37.4848 22.9544 39.6376C24.0247 40.1758 24.5603 40.1768 25.6305 40.715C26.7017 40.7171 27.2383 40.182 26.7045 39.1088C26.7054 38.5727 26.1708 38.0355 26.1717 37.4994C24.5714 33.7435 22.9711 29.9876 20.8351 26.2306C20.8361 25.6945 20.3014 25.1574 20.3023 24.6212C20.3032 24.0851 19.7686 23.548 19.233 23.5469C18.6983 23.0098 18.1627 23.0087 17.0906 23.5428ZM25.1014 36.9612C25.6361 37.4984 25.6352 38.0345 25.6333 39.1067C25.6324 39.6428 25.6315 40.1789 24.5603 40.1768C23.4891 40.1747 22.9544 39.6376 21.8841 39.0993C23.4918 38.5664 24.5649 37.4963 25.1014 36.9612ZM22.9683 31.5959C23.5029 32.1331 23.5011 33.2053 24.0358 33.7424L24.0348 34.2786C22.9618 35.3487 21.3531 36.4178 20.2801 37.4879L19.7445 37.4868C18.6742 36.9486 17.6039 36.4104 17.0683 36.4094C18.1405 35.8754 18.677 35.3403 19.7491 34.8063C20.2866 33.7351 21.3596 32.665 22.9683 31.5959C22.4336 31.0588 22.4336 31.0588 22.9683 31.5959ZM21.368 27.84C19.7574 29.9813 18.1488 31.0504 16.0045 32.1184C15.468 32.6535 14.3968 32.6514 13.8603 33.1864C16.5411 31.5833 19.2237 28.908 20.3005 25.6934C20.8342 26.7667 20.8333 27.3028 21.368 27.84ZM19.7667 24.6202C19.7658 25.1563 19.7649 25.6924 19.2293 25.6914C17.6169 28.9049 15.4699 31.5812 12.2544 32.6472C11.7188 32.6461 11.1823 33.1812 11.1823 33.1812C10.6467 33.1801 10.112 32.643 10.1129 32.1069C10.1139 31.5708 10.1148 31.0347 10.6513 30.4996C12.2627 27.8222 14.4098 25.1458 17.6252 24.0799C18.1608 24.081 18.6974 23.5459 19.233 23.5469C19.7686 23.548 19.7676 24.0841 19.7667 24.6202Z" fill="white"/>
<path d="M11.2035 23.0006C11.2026 23.5368 11.2026 23.5368 10.667 23.5357C10.1313 23.5347 10.1314 23.5347 10.1323 22.9985C10.1332 22.4624 10.1332 22.4625 10.1341 21.9263C10.1369 20.318 9.06756 19.2437 7.99728 18.7055C6.927 18.1673 6.3914 18.1662 5.32113 17.628C4.78553 17.627 4.25085 17.0898 4.25085 17.0898C3.18057 16.5516 2.64683 15.4783 2.64868 14.4061C2.64961 13.87 2.64962 13.87 3.18522 13.8711C3.72082 13.8721 3.72081 13.8721 3.71989 14.4082C3.71803 15.4804 4.2527 16.0176 5.32298 16.5558C5.85766 17.093 6.92886 17.095 7.99913 17.6333C8.53473 17.6343 9.60502 18.1725 10.1397 18.7097C11.21 19.2479 11.7437 20.3212 11.7409 21.9295C11.2053 21.9284 11.2044 22.4645 11.2035 23.0006Z" fill="white"/>
<path d="M1.01312 28.8723C1.54872 28.8734 2.08432 28.8744 2.62085 28.3393C3.15738 27.8043 3.69297 27.8053 4.2295 27.2703C5.83816 26.2012 7.44405 26.7404 8.5134 27.8148C8.5134 27.8148 8.51246 28.3509 9.04806 28.3519L9.04714 28.8881L8.51155 28.887L7.97686 28.3498C6.90658 27.8116 6.37191 27.2745 5.29978 27.8085C4.76325 28.3435 4.22766 28.3425 3.15554 28.8765C2.61901 29.4116 2.08339 29.4105 1.54779 29.4095C1.01219 29.4084 1.0122 29.4084 1.01312 28.8723C-0.0580793 28.8702 0.477522 28.8713 1.01312 28.8723Z" fill="white"/>
<path d="M16.0374 14.9689C16.0365 15.505 16.0356 16.0411 15.4991 16.5761C14.9625 17.1112 14.9616 17.6473 14.4251 18.1824C14.4242 18.7185 13.8886 18.7174 13.8876 19.2536C13.3502 20.3247 13.8849 20.8619 14.4195 21.3991C14.4195 21.3991 14.4186 21.9352 14.9542 21.9362L14.9533 22.4723L14.4177 22.4713C13.3474 21.9331 12.8146 20.3237 13.353 18.7164C13.8895 18.1813 13.8904 17.6452 14.4279 16.5741C14.9644 16.039 14.9653 15.5029 15.5019 14.9678C15.5028 14.4317 15.5028 14.4317 15.5037 13.8956C15.5046 13.3595 15.5046 13.3595 16.0402 13.3605C16.0393 13.8967 16.0384 14.4327 16.0374 14.9689Z" fill="white"/>
<path d="M1.563 22.4453C2.09953 21.9103 2.09953 21.9103 2.63606 21.3752C2.63606 21.3752 2.63606 21.3752 2.63698 20.8391C2.63791 20.303 2.10324 19.7658 2.10417 19.2297C2.63977 19.2308 3.17445 19.7679 3.17445 19.7679L3.71004 19.769C4.24657 19.2339 4.24657 19.2339 4.7831 18.6989C4.78217 19.235 4.78125 19.7711 4.78125 19.7711L4.78032 20.3072C5.31592 20.3082 5.315 20.8444 5.8506 20.8454C5.315 20.8444 4.7794 20.8433 4.7794 20.8433C4.2438 20.8423 4.24378 20.8423 4.24286 21.3784C4.24193 21.9145 4.241 22.4506 4.24008 22.9867C4.241 22.4506 3.70634 21.9134 3.70634 21.9134C3.70726 21.3773 3.17167 21.3763 3.17074 21.9124C2.09862 22.4464 2.0986 22.4464 1.563 22.4453Z" fill="white"/>
<path d="M15.4938 19.7925C16.0294 19.7935 16.0294 19.7936 16.5659 19.2585C16.5659 19.2585 16.5669 18.7224 16.5678 18.1863C17.1025 18.7234 17.6371 19.2606 18.1737 18.7255C17.6371 19.2606 17.6362 19.7967 18.1709 20.3338C17.1006 19.7956 17.1006 19.7957 16.5631 20.8668C16.5631 20.8668 16.5641 20.3307 15.4938 19.7925C15.4938 19.7925 15.4929 20.3286 15.4938 19.7925Z" fill="white"/>
<path d="M10.1429 16.5651C10.1438 16.029 10.6803 15.4939 11.215 16.0311C11.7506 16.0321 12.2853 16.5693 11.7487 17.1044C11.7478 17.6405 11.2113 18.1755 10.6766 17.6384C10.1419 17.1012 10.1419 17.1012 10.1429 16.5651Z" fill="white"/>
<path d="M7.45308 23.5296C7.98869 23.5306 8.52336 24.0678 8.52244 24.6039C8.52151 25.14 7.98498 25.675 7.44938 25.674C6.91378 25.6729 6.3791 25.1358 6.38003 24.5997C6.91655 24.0646 6.91748 23.5285 7.45308 23.5296Z" fill="white"/>
<path d="M5.83162 29.9543C6.36723 29.9554 6.90188 30.4925 6.90096 31.0286C6.90003 31.5647 6.36352 32.0998 5.82792 32.0988C5.29232 32.0977 4.75764 31.5605 4.75857 31.0244C5.29509 30.4894 5.83162 29.9543 5.83162 29.9543Z" fill="white"/>
<path d="M19.7837 16.5846C19.2481 16.5836 18.7135 16.0464 18.7144 15.5103C18.7153 14.9742 19.2518 14.4391 19.7874 14.4402C20.323 14.4412 20.8577 14.9784 20.8568 15.5145C20.8549 16.5867 20.3193 16.5857 19.7837 16.5846Z" fill="white"/>
<path d="M135.725 11.4412L135.733 11.4268L135.74 11.4121C136.203 10.4887 136.604 9.56132 136.979 8.69415C137.059 8.50981 137.137 8.3282 137.215 8.14992C137.667 7.11426 138.094 6.18186 138.594 5.34931L138.649 5.25866L138.686 5.15963C139.195 3.80599 139.814 2.88272 140.492 2.39981C141.092 1.97229 141.857 1.80196 142.989 2.22543C143.564 2.44051 143.91 2.70041 144.128 2.95523C144.346 3.20913 144.488 3.51674 144.569 3.90491C144.743 4.73887 144.613 5.76863 144.427 7.06845C142.665 14.7681 139.157 21.0785 133.859 27.0746C133.694 27.2388 133.463 27.4687 133.278 27.715C133.185 27.8389 133.07 28.0091 132.978 28.2187C129.566 30.4633 127.422 33.1919 126.237 36.3591C125.02 39.6141 124.848 43.2429 125.218 47.1256L125.222 47.159L125.227 47.1922C125.558 49.3411 125.316 51.5318 124.831 53.8187C124.589 54.9613 124.29 56.1101 123.979 57.2841C123.944 57.414 123.91 57.5442 123.875 57.6748C123.599 58.7128 123.318 59.772 123.072 60.8318C122.676 62.4195 122.653 63.8121 123.045 65.0993C123.437 66.3825 124.207 67.4441 125.192 68.4266L125.216 68.4507L125.241 68.4733C126.842 69.8918 128.357 71.4028 129.9 72.942L129.912 72.9535C131.443 74.481 133.003 76.0364 134.658 77.504L134.666 77.511L134.674 77.5178C135.866 78.5368 136.549 79.5067 136.74 80.3653C136.908 81.1193 136.743 81.995 135.695 83.0397L135.664 83.0711L135.635 83.1049C134.723 84.1653 133.864 84.4922 133.071 84.4629C132.216 84.4313 131.192 83.9778 130.024 82.9793L130.009 82.9665L129.994 82.9543L121.845 76.4521L113.695 69.95L113.671 69.9303L113.645 69.912C112.513 69.1052 111.9 68.3021 111.636 67.4442C111.369 66.5785 111.402 65.4854 111.899 63.9996L111.907 63.9756L111.914 63.9513L111.925 63.9125C112.627 61.4639 113.353 58.9286 113.734 56.3774C113.951 55.8628 114.067 55.2187 113.923 54.5747C113.745 53.7747 113.185 53.0887 112.251 52.7782C111.857 52.6472 111.43 52.5808 110.994 52.6575C110.54 52.7374 110.172 52.956 109.89 53.2382C109.395 53.7316 109.144 54.4499 108.975 54.956L108.969 54.9727L108.964 54.9896C108.576 56.2807 108.144 57.514 107.707 58.7625C107.542 59.2333 107.376 59.7062 107.212 60.1852C106.624 61.9005 106.064 63.6602 105.687 65.5267C104.838 68.5687 106.167 71.5658 108.687 73.2532C110.474 74.5544 111.632 76.188 112.574 78.0235C113.049 78.95 113.465 79.9182 113.881 80.924C113.963 81.1205 114.045 81.319 114.127 81.5189C114.459 82.3259 114.801 83.1559 115.171 83.9682C115.58 84.9268 115.481 85.6293 115.171 86.1906C114.829 86.8112 114.149 87.3962 113.179 87.8802C112.236 88.3503 111.311 88.5348 110.536 88.4061C109.812 88.2858 109.107 87.8759 108.546 86.8966L108.542 86.8909C105.588 81.8011 102.838 76.5199 100.124 71.3092C99.1934 69.5211 98.2666 67.7414 97.3374 65.9805L97.3222 65.9518L97.3055 65.9239C96.8649 65.1915 96.7906 64.6618 96.8652 64.2404C96.944 63.7949 97.2231 63.2772 97.8551 62.6469L97.9005 62.6016L97.9407 62.5515C98.5809 61.7534 99.1562 60.8855 99.6866 60.0854C99.7902 59.9292 99.892 59.7756 99.9923 59.6256C100.626 58.6768 101.205 57.8613 101.839 57.2285C107.643 51.4399 107.975 44.1133 107.975 37.2622C107.975 35.8734 107.492 34.8546 106.729 34.093C106.05 33.4166 105.18 32.9831 104.501 32.645C104.479 32.6339 104.457 32.6229 104.435 32.612L104.419 32.6039L104.402 32.5964C99.7507 30.455 95.1601 27.9852 90.9368 24.4836C90.0678 23.6114 89.7783 23.121 89.712 22.7464C89.6556 22.4276 89.7227 21.9376 90.3844 20.9437C91.3438 19.6015 91.922 18.4459 92.3948 17.3613C92.5648 16.9712 92.7138 16.61 92.8578 16.2606C92.9357 16.0718 93.0122 15.8864 93.0897 15.7017C97.9865 19.9764 103.613 23.273 110.254 24.3194C116.042 25.2502 121.013 24.7081 125.27 22.5366C129.524 20.3673 132.933 16.6392 135.725 11.4412Z" stroke="white" stroke-width="2.3195"/>
<path d="M61.918 66.528L62.1457 65.8466L61.637 65.3392C61.5551 65.2575 61.4421 65.0975 61.2389 64.7934C61.2302 64.7804 61.2212 64.7669 61.2119 64.753C61.0701 64.5404 60.8666 64.2354 60.6369 63.9847C60.2059 63.3625 59.6926 62.8602 59.1975 62.4114C59.021 62.2513 58.8515 62.1019 58.6854 61.9555C58.3373 61.6485 58.0043 61.3549 57.653 61.0045L57.6157 60.9673L57.5753 60.9337C51.2835 55.7044 47.4478 48.75 46.3962 40.7406C45.9951 36.7898 44.0098 33.6737 41.366 31.0337C35.009 24.3372 31.1271 16.5939 29.3586 7.77436L29.3443 7.7034L29.3214 7.63476C29.0282 6.75753 29.019 5.86116 29.019 4.75131C29.019 3.68761 29.1181 2.85499 29.4282 2.26727C29.6829 1.78467 30.1421 1.34582 31.2624 1.20616L31.2725 1.2049L31.2825 1.20347C32.2747 1.0621 32.9648 1.27401 33.5196 1.67366C34.1016 2.09285 34.621 2.78222 35.1164 3.75424C36.2035 7.00092 37.2972 9.90565 38.752 13.1704L38.7627 13.1945L38.7746 13.2181C44.4762 24.5913 57.0854 29.1906 68.5343 23.872C73.7897 21.6222 77.891 18.2597 81.9193 14.242C82.9683 13.1958 83.8656 12.5751 84.6752 12.3813C85.3791 12.2129 86.1858 12.3276 87.2282 13.2187C87.7482 13.6632 87.9949 14.048 88.1093 14.3608C88.221 14.6664 88.2362 14.984 88.1595 15.3511C87.9885 16.1694 87.4178 17.0542 86.6554 18.1948L86.6486 18.2051L86.6419 18.2155C81.7075 25.9491 74.6529 31.5849 66.5137 35.1143L66.5137 35.1143L66.5051 35.1181C64.7848 35.8806 63.5978 36.7782 63.1192 38.1423C62.6711 39.4192 62.9628 40.8352 63.3149 42.24C64.7388 47.9207 67.4932 52.7792 70.1343 57.4378C70.9368 58.8535 71.7289 60.2507 72.4701 61.6469L72.4756 61.6573L72.4813 61.6675C73.3289 63.1893 73.6842 64.422 73.6482 65.5359C73.6127 66.6344 73.1915 67.7642 72.2053 69.0757L72.191 69.0948L72.1774 69.1145C68.1709 74.9268 64.5329 81.0941 61.2623 87.2528C60.4282 88.5744 59.6094 89.3203 58.7728 89.6412C57.9727 89.9481 56.9565 89.9414 55.5404 89.3234C54.1865 88.5612 53.7689 87.7755 53.6857 87.0285C53.5888 86.1589 53.9082 85.0599 54.6111 83.6579L54.6141 83.652C56.7852 79.3211 58.9653 74.9725 61.1461 70.2597L61.2534 70.028V69.7727C61.2534 68.4323 61.4607 67.8407 61.752 67.0096C61.8048 66.8589 61.8604 66.7003 61.918 66.528Z" stroke="white" stroke-width="2.3195"/>
<path d="M47.4904 10.5314C47.4904 5.44774 51.6226 1.57674 56.834 1.57674C61.6029 1.57674 65.8154 5.72991 65.8154 10.8927C65.8154 15.9646 61.7023 19.8294 56.508 19.8473C51.3254 19.506 47.4904 15.3093 47.4904 10.5314Z" stroke="white" stroke-width="2.3195"/>
<path d="M115.431 2.29592L115.47 2.29848H115.508C120.246 2.29848 123.765 6.05867 123.765 10.8919C123.765 15.667 119.941 19.4854 115.146 19.4854C110.378 19.4854 106.527 15.6948 106.527 10.5307C106.527 5.79675 110.654 1.97828 115.431 2.29592Z" stroke="white" stroke-width="2.3195"/>
<path d="M33.0257 71.4907C33.1715 70.7634 33.7293 69.902 35.0666 68.9002L41.0356 64.5705L47.0116 60.2358L47.0852 60.1824L47.1496 60.1181L47.1695 60.0983C47.3793 59.8889 47.5898 59.6789 48.0106 59.3611C49.1181 60.4741 49.9769 61.3796 50.8365 62.5226L50.8721 62.5699L50.9123 62.6134C52.0185 63.8087 52.7798 64.6337 53.2589 65.2812C53.7629 65.9621 53.7395 66.1741 53.7382 66.1839C53.7376 66.1883 53.7097 66.3921 53.0467 66.8974C52.4151 67.3788 51.465 67.9495 50.0813 68.7775C48.9253 69.4693 47.744 70.1372 46.5489 70.8128C44.1143 72.1894 41.6228 73.598 39.1732 75.3059C37.9195 76.0809 36.8827 76.2307 36.0874 76.0477C35.2934 75.8649 34.5381 75.3041 33.9361 74.2533L33.9069 74.2024L33.8727 74.1546C33.0733 73.0383 32.8854 72.1901 33.0257 71.4907Z" stroke="white" stroke-width="2.3195"/>
<path d="M82.8043 5.33538C82.8045 5.33681 82.8047 5.33825 82.8049 5.33969C82.7748 5.24595 82.7442 5.14834 82.7121 5.04597C82.6931 4.98546 82.6736 4.9233 82.6534 4.8593C82.5885 4.65403 82.5163 4.4301 82.4321 4.20103C82.4817 4.24372 82.5144 4.28413 82.5388 4.31954C82.6093 4.42205 82.6709 4.57464 82.7249 4.84402C82.7519 4.97854 82.7734 5.12176 82.7984 5.29468C82.8003 5.30802 82.8023 5.32159 82.8043 5.33538Z" stroke="white" stroke-width="2.3195"/>
<path d="M92.2226 8.33077C92.551 7.91927 92.9106 7.55687 93.2974 7.26706C93.0025 7.66488 92.6518 8.01867 92.2226 8.33077Z" stroke="white" stroke-width="2.3195"/>
<mask id="path-18-inside-1_286_65602" fill="white">
<path d="M86.8953 6.19639C87.6197 5.1127 86.5331 2.94531 88.7062 2.94531C89.7928 2.94531 89.7928 4.02901 89.4306 4.39024C89.0684 5.83516 89.4306 7.64131 87.2575 8.00254C86.5331 8.00254 86.8953 6.91885 86.8953 6.19639Z"/>
</mask>
<path d="M86.8953 6.19639L84.9669 4.90741L84.5758 5.49256V6.19639H86.8953ZM89.4306 4.39024L87.7926 2.74794L87.3371 3.20225L87.1807 3.82628L89.4306 4.39024ZM87.2575 8.00254V10.322H87.4489L87.6378 10.2906L87.2575 8.00254ZM88.8237 7.48536C89.3365 6.7182 89.4446 5.89825 89.4872 5.45171C89.5099 5.2145 89.5213 4.96951 89.5296 4.81898C89.5394 4.64042 89.547 4.54275 89.5565 4.47181C89.5808 4.29028 89.582 4.59986 89.2675 4.92178C88.897 5.30102 88.5358 5.26481 88.7062 5.26481V0.625815C87.7901 0.625815 86.7498 0.860526 85.9492 1.68002C85.2046 2.44219 85.0247 3.36135 84.9584 3.85712C84.9226 4.12483 84.9076 4.38275 84.8976 4.56401C84.8861 4.7733 84.8806 4.89236 84.8693 5.01074C84.844 5.27537 84.8163 5.13273 84.9669 4.90741L88.8237 7.48536ZM88.7062 5.26481C88.5861 5.26481 88.2855 5.23015 87.9625 4.99474C87.639 4.75894 87.4596 4.44235 87.3819 4.17106C87.3098 3.9196 87.3176 3.69345 87.359 3.50763C87.396 3.34155 87.4976 3.04215 87.7926 2.74794L91.0685 6.03253C91.9327 5.17067 92.1292 3.89802 91.8415 2.89356C91.6732 2.3062 91.3127 1.69611 90.6949 1.24583C90.0777 0.79594 89.3696 0.625815 88.7062 0.625815V5.26481ZM87.1807 3.82628C87.0505 4.34566 86.9872 4.89104 86.9451 5.20384C86.8931 5.58976 86.8587 5.76151 86.8232 5.86754C86.8001 5.93682 86.8191 5.84515 86.9352 5.74352C87.0517 5.6416 87.0959 5.67808 86.8771 5.71444L87.6378 10.2906C88.5056 10.1464 89.3195 9.82163 89.9905 9.2343C90.6612 8.64727 91.0198 7.94603 91.223 7.338C91.4139 6.76672 91.4927 6.19344 91.5426 5.82304C91.6023 5.3795 91.6296 5.15727 91.6805 4.9542L87.1807 3.82628ZM87.2575 5.68304C87.4551 5.68304 87.7673 5.72075 88.108 5.89871C88.4628 6.0841 88.7194 6.35448 88.8829 6.62624C89.033 6.8759 89.0855 7.09265 89.1051 7.19813C89.1158 7.25571 89.1202 7.29975 89.1222 7.32589C89.1242 7.35235 89.1242 7.36809 89.1242 7.37039C89.1242 7.3715 89.1244 7.34765 89.1299 7.28397C89.1354 7.21941 89.1433 7.14731 89.1553 7.04021C89.1742 6.87024 89.2148 6.53098 89.2148 6.19639H84.5758C84.5758 6.19528 84.5756 6.21913 84.5702 6.28281C84.5646 6.34737 84.5567 6.41946 84.5448 6.52657C84.5259 6.69653 84.4853 7.03579 84.4853 7.37038C84.4852 7.64881 84.5012 8.3418 84.9077 9.0176C85.4541 9.92584 86.3839 10.322 87.2575 10.322V5.68304Z" fill="white" mask="url(#path-18-inside-1_286_65602)"/>
<mask id="path-20-inside-2_286_65602" fill="white">
<path d="M81.4625 9.44708C81.1003 10.1695 80.7381 10.5308 80.0137 10.1695C78.565 9.44708 76.7541 9.44708 76.3919 7.2797C76.3919 6.55724 77.4785 6.19601 77.8406 6.55724C79.2894 7.64093 80.7381 8.00216 81.4625 9.44708Z"/>
</mask>
<path d="M81.4625 9.44708L83.536 10.4866L84.0571 9.44708L83.536 8.40757L81.4625 9.44708ZM76.3919 7.2797H74.0724V7.47217L74.1041 7.662L76.3919 7.2797ZM77.8406 6.55724L76.2027 8.19953L76.3194 8.3159L76.4513 8.4146L77.8406 6.55724ZM79.389 8.40757C79.3268 8.53153 79.305 8.55702 79.3216 8.5345C79.3379 8.51254 79.4497 8.36388 79.6829 8.22435C79.9495 8.0648 80.2699 7.98033 80.5872 7.99299C80.8676 8.00417 81.0343 8.08657 81.0489 8.09382L78.9786 12.2453C79.7847 12.6473 80.9402 12.8781 82.065 12.205C82.9166 11.6954 83.3463 10.865 83.536 10.4866L79.389 8.40757ZM81.0489 8.09382C80.5386 7.83937 80.0144 7.65747 79.6679 7.53372C79.2679 7.39081 79.0518 7.30754 78.8847 7.21865C78.7452 7.1445 78.7316 7.11188 78.7448 7.12903C78.7642 7.15429 78.7161 7.11545 78.6797 6.8974L74.1041 7.662C74.2488 8.52764 74.5628 9.30157 75.069 9.95898C75.5689 10.6083 76.1664 11.0272 76.7061 11.3143C77.2181 11.5866 77.7489 11.7743 78.1072 11.9023C78.5191 12.0494 78.7645 12.1385 78.9786 12.2453L81.0489 8.09382ZM78.7114 7.2797C78.7114 8.21483 78.0305 8.58575 77.8921 8.64491C77.776 8.69453 77.6062 8.74256 77.3759 8.73405C77.1721 8.72653 76.663 8.65869 76.2027 8.19953L79.4786 4.91494C78.8372 4.27517 78.0564 4.11703 77.5471 4.09822C77.0112 4.07842 76.5018 4.19418 76.0688 4.37926C75.2966 4.70935 74.0724 5.62211 74.0724 7.2797H78.7114ZM76.4513 8.4146C76.91 8.75774 77.3531 9.03188 77.7296 9.25593C78.1424 9.50168 78.3968 9.64336 78.6713 9.81931C79.1504 10.1265 79.2959 10.301 79.389 10.4866L83.536 8.40757C82.9047 7.14821 81.9637 6.41967 81.1751 5.91408C80.8157 5.68365 80.3911 5.44153 80.1022 5.26961C79.7769 5.07598 79.4956 4.89858 79.23 4.69988L76.4513 8.4146Z" fill="white" mask="url(#path-20-inside-2_286_65602)"/>
</svg>
