<svg width="42" height="36" viewBox="0 0 42 36" fill="none" xmlns="http://www.w3.org/2000/svg">
<path d="M0.7685 35.832C0.7685 33.528 0.7685 31.2667 0.7685 29.048C0.7685 26.744 0.811167 24.568 0.8965 22.52C0.981833 15.5227 2.00583 10.1893 3.9685 6.52C6.0165 2.76533 9.68583 0.845327 14.9765 0.759995L17.0245 6.52C14.0378 6.69066 12.0325 7.88533 11.0085 10.104C10.0698 12.3227 9.6005 15.4373 9.6005 19.448H17.5365V35.832H0.7685ZM25.2165 35.832C25.2165 33.528 25.2165 31.2667 25.2165 29.048C25.2165 26.744 25.2592 24.568 25.3445 22.52C25.4298 15.5227 26.4538 10.1893 28.4165 6.52C30.4645 2.76533 34.1338 0.845327 39.4245 0.759995L41.4725 6.52C38.4858 6.69066 36.4805 7.88533 35.4565 10.104C34.5178 12.3227 34.0485 15.4373 34.0485 19.448H41.9845V35.832H25.2165Z" fill="#252424"/>
</svg>
