<svg width="28" height="22" viewBox="0 0 28 22" fill="none" xmlns="http://www.w3.org/2000/svg">
<path d="M0.642822 6.29329L13.5798 13.0216C13.7096 13.0891 13.8537 13.1243 14 13.1243C14.1462 13.1243 14.2903 13.0891 14.4201 13.0216L27.3571 6.2945V17.982C27.3572 18.99 26.9715 19.9599 26.2792 20.6926C25.5869 21.4253 24.6405 21.8653 23.6341 21.9224L23.4107 21.9284H4.58925C3.58123 21.9285 2.61139 21.5428 1.87868 20.8505C1.14598 20.1583 0.705964 19.2118 0.648894 18.2054L0.642822 17.982V6.29329ZM4.58925 0.0712891H23.4107C24.4187 0.0712231 25.3885 0.45689 26.1212 1.14918C26.8539 1.84146 27.294 2.78788 27.351 3.79429L27.3571 4.01772V4.24115L14 11.1869L0.642822 4.24115V4.01772C0.642756 3.00969 1.02842 2.03985 1.72071 1.30715C2.41299 0.574449 3.35941 0.13443 4.36582 0.0773606L4.58925 0.0712891H23.4107H4.58925Z" fill="#464646"/>
</svg>
