<svg width="19" height="25" viewBox="0 0 19 25" fill="none" xmlns="http://www.w3.org/2000/svg">
<path d="M2.85011 0.799475L4.78711 0.194618C5.42639 -0.00468853 6.11384 0.0436691 6.72122 0.33067C7.32861 0.617671 7.81445 1.12371 8.08811 1.7544L9.44611 4.88226C9.68181 5.42489 9.7475 6.03036 9.63397 6.61364C9.52044 7.19692 9.23339 7.72873 8.81311 8.1344L6.74611 10.1292C6.46911 10.4016 6.67911 11.4632 7.69111 13.2798C8.70411 15.0975 9.48711 15.8163 9.84811 15.7044L12.5561 14.8469C13.105 14.673 13.6927 14.6813 14.2368 14.8708C14.7809 15.0602 15.2541 15.4213 15.5901 15.9033L17.5201 18.6738C17.9099 19.2333 18.0904 19.9203 18.0281 20.6072C17.9657 21.2941 17.6648 21.9342 17.1811 22.4086L15.6891 23.8721C15.2075 24.3445 14.6134 24.6761 13.9677 24.8332C13.3219 24.9902 12.6474 24.967 12.0131 24.7659C8.88711 23.7747 5.99211 20.8333 3.28911 15.983C0.580113 11.1255 -0.442887 7.02826 0.270113 3.68083C0.413918 3.00633 0.728803 2.38375 1.18231 1.87727C1.63582 1.37079 2.21153 0.998742 2.85011 0.799475Z" fill="#464646"/>
</svg>
